<svg width="24" height="24" viewBox="0 0 24 24" fill="none" xmlns="http://www.w3.org/2000/svg">
<path d="M20.3582 12.9493C22.3627 12.9555 23.9878 14.6094 24 16.6556V20.2823C23.9878 22.3304 22.3645 23.9876 20.3582 24H16.8056C14.8012 23.9875 13.181 22.3285 13.1749 20.2823V16.6556C13.1749 14.6087 14.8004 12.9493 16.8056 12.9493H20.3582ZM5.1007 12.9493C5.47372 12.9086 5.83681 13.0888 6.03581 13.4134C6.23482 13.7381 6.23482 14.1502 6.03581 14.4748C5.83681 14.7995 5.47372 14.9797 5.1007 14.9389H3.64176C2.71118 14.9389 1.95508 15.7057 1.94896 16.6556V20.2369C1.97262 21.1792 2.71853 21.9357 3.64176 21.9536H7.21671C7.66464 21.9566 8.09525 21.7771 8.41303 21.4548C8.73082 21.1325 8.90952 20.6942 8.90951 20.2369V14.8593L8.89431 14.7256C8.87751 14.3698 9.04816 14.0271 9.34846 13.8327C9.68631 13.614 10.1204 13.6269 10.4453 13.8653C10.7701 14.1036 10.9204 14.5196 10.8251 14.9162V20.271C10.8251 22.3242 9.19458 23.9887 7.18329 23.9887H3.64176C1.64786 23.9464 0.0413683 22.3064 0 20.271V16.6556C0 15.6707 0.384035 14.7262 1.06732 14.0309C1.75061 13.3355 2.67693 12.9463 3.64176 12.9493H5.1007ZM20.3582 14.9389H16.8056C15.8768 14.9389 15.1239 15.7075 15.1239 16.6556V20.2823C15.1209 20.7386 15.2971 21.177 15.6131 21.4996C15.9292 21.8222 16.3587 22.0021 16.8056 21.9991H20.3582C20.8052 22.0021 21.2346 21.8222 21.5507 21.4996C21.8667 21.177 22.0429 20.7386 22.0399 20.2823V16.6556C22.0399 16.2003 21.8627 15.7637 21.5474 15.4417C21.232 15.1198 20.8042 14.9389 20.3582 14.9389ZM20.3582 0C22.3478 0.0482266 23.9477 1.68651 23.9889 3.71767V7.33302C24.0008 8.31601 23.6296 9.26356 22.9571 9.96717C22.2845 10.6708 21.3657 11.0728 20.4028 11.0848H18.9327C18.4347 11.0304 18.057 10.6013 18.057 10.09C18.057 9.57868 18.4347 9.14965 18.9327 9.09522H20.3582C20.8091 9.09223 21.2403 8.90571 21.556 8.57703C21.8717 8.24835 22.0459 7.80467 22.0399 7.34439V3.71767C22.0279 2.77467 21.282 2.0132 20.3582 2.00095H16.8056C15.8768 2.00095 15.1239 2.76955 15.1239 3.71767V9.14069L15.1123 9.26539C15.0367 9.75481 14.6191 10.1244 14.1216 10.1184C13.8626 10.1125 13.6167 10.001 13.4389 9.80871C13.261 9.61646 13.1659 9.3595 13.1749 9.09522V3.71767C13.172 2.73273 13.5532 1.78709 14.2344 1.08957C14.9156 0.39204 15.8407 0 16.8056 0H20.3582ZM7.19443 0C9.20318 0.00624242 10.8301 1.66705 10.8362 3.71767V7.34439C10.8362 8.32933 10.4522 9.27377 9.76888 9.96916C9.08559 10.6646 8.15926 11.0537 7.19443 11.0507H3.64176C1.63733 11.0445 0.012213 9.39057 6.12529e-08 7.34439V3.71767C0.0121594 1.66962 1.63553 0.0124128 3.64176 0H7.19443ZM7.19443 2.00095H3.64176C3.19 1.99178 2.75362 2.1686 2.43099 2.49154C2.10835 2.81449 1.92659 3.25639 1.92668 3.71767V7.34439C1.9175 7.81155 2.09524 8.26235 2.41889 8.59274C2.74255 8.92314 3.18414 9.10459 3.64176 9.09522H7.19443C7.64534 9.09223 8.07645 8.90571 8.39215 8.57703C8.70785 8.24835 8.88205 7.80467 8.8761 7.34439V3.71767C8.87003 2.77213 8.12067 2.00715 7.19443 2.00095Z" fill="#06070C"/>
</svg>
