<svg width="24" height="24" viewBox="0 0 24 24" fill="none" xmlns="http://www.w3.org/2000/svg">
<path d="M10.1176 22.0855H5.00881C3.35342 22.0798 2.01124 20.8132 1.99908 19.2453V9.62021C2.00233 9.09533 2.2503 8.59865 2.67655 8.26323L3.57614 7.63207C3.90455 7.30065 3.93795 6.79493 3.65569 6.42733C3.37343 6.05973 2.85519 5.934 2.42111 6.12782L1.49931 6.78001C0.569468 7.46147 0.0176703 8.50676 0 9.62021V19.2558C0.00610777 21.8736 2.24506 23.9942 5.00881 24H10.1176C10.6696 24 11.1171 23.5761 11.1171 23.0533C11.1171 22.5304 10.6696 22.1065 10.1176 22.1065V22.0855Z" fill="#06070C"/>
<path d="M24.0001 9.59925C23.9884 8.49398 23.4546 7.4518 22.5452 6.75906L14.871 0.962954C13.1845 -0.320985 10.7822 -0.320985 9.09583 0.962954L6.66361 2.63551C6.20665 2.94633 6.10223 3.54916 6.43038 3.98198C6.75853 4.41479 7.39499 4.51369 7.85195 4.20288L10.3175 2.45669C11.2852 1.70207 12.6816 1.70207 13.6493 2.45669L21.3235 8.25279C21.7652 8.58442 22.0262 9.08649 22.0343 9.62029V19.2559C22.0343 20.8245 20.6918 22.0961 19.0357 22.0961H16.759C16.5259 22.0961 16.3369 21.9171 16.3369 21.6964V17.3519C16.337 15.9675 15.1553 14.8436 13.6937 14.8378H10.3619C9.65794 14.8378 8.9828 15.1027 8.48501 15.5742C7.98723 16.0457 7.70757 16.6852 7.70757 17.3519V19.014C7.70757 19.5368 8.15508 19.9607 8.70712 19.9607C9.25915 19.9607 9.70666 19.5368 9.70666 19.014V17.3519C9.70368 17.1883 9.77023 17.0304 9.89135 16.9137C10.0125 16.797 10.178 16.7313 10.3508 16.7313H13.6826C14.0384 16.7313 14.3268 17.0045 14.3268 17.3414V21.6964C14.3329 22.9646 15.42 23.9896 16.759 23.9896H18.9802C21.7465 23.9896 23.989 21.8655 23.989 19.2454L24.0001 9.59925Z" fill="#06070C"/>
</svg>
