<svg width="23" height="24" viewBox="0 0 23 24" fill="none" xmlns="http://www.w3.org/2000/svg">
<path d="M15.9954 0C19.9942 0 22.3892 2.34172 22.4 6.25166V17.7483C22.4 21.6583 20.0159 24 16.0062 24H12.4517C11.9958 23.9509 11.6508 23.5742 11.6508 23.1258C11.6508 22.6774 11.9958 22.3008 12.4517 22.2517H15.9954C19.0514 22.2517 20.5902 20.7364 20.5902 17.7483V6.25166C20.5902 3.26358 19.0514 1.74834 15.9954 1.74834H6.39381C3.33778 1.74834 1.7881 3.26358 1.7881 6.25166V17.7483C1.7881 20.7364 3.33778 22.2517 6.39381 22.2517C6.84966 22.3008 7.19469 22.6774 7.19469 23.1258C7.19469 23.5742 6.84966 23.9509 6.39381 24C2.39497 24 0 21.6583 0 17.7483V6.25166C0 2.33113 2.39497 0 6.39381 0H15.9954ZM15.6702 16.2119C16.161 16.2119 16.5589 16.6009 16.5589 17.0808C16.5589 17.5607 16.161 17.9497 15.6702 17.9497H6.69724C6.20646 17.9497 5.80861 17.5607 5.80861 17.0808C5.80861 16.6009 6.20646 16.2119 6.69724 16.2119H15.6702ZM15.6702 11.1258C16.0132 11.0889 16.3475 11.2469 16.5308 11.5327C16.7141 11.8184 16.7141 12.1816 16.5308 12.4673C16.3475 12.7531 16.0132 12.9111 15.6702 12.8742H6.69724C6.24139 12.825 5.89635 12.4484 5.89635 12C5.89635 11.5516 6.24139 11.175 6.69724 11.1258H15.6702ZM10.1217 6.05033C10.5776 6.09948 10.9226 6.47609 10.9226 6.9245C10.9226 7.37292 10.5776 7.74953 10.1217 7.79868H6.70808C6.25223 7.74953 5.90719 7.37292 5.90719 6.9245C5.90719 6.47609 6.25223 6.09948 6.70808 6.05033H10.1217Z" fill="#06070C"/>
</svg>
