<svg width="21" height="24" viewBox="0 0 21 24" fill="none" xmlns="http://www.w3.org/2000/svg">
<path d="M7.64986 15.3208C9.5174 15.1729 11.3951 15.1729 13.2626 15.3208C14.2839 15.384 15.2982 15.5217 16.2963 15.7326C18.455 16.1338 19.8639 16.9257 20.4547 18.0872C20.9267 19.0521 20.9143 20.1619 20.4206 21.1175C19.8184 22.2789 18.4096 23.0708 16.2167 23.4826C15.2221 23.6893 14.2116 23.8235 13.1945 23.8839C12.0696 24 11.1152 24 10.229 24H9.87679C9.37472 23.9498 8.99413 23.5559 8.99413 23.0867C8.99413 22.6174 9.37472 22.2236 9.87679 22.1734L10.6542 22.1732C11.4334 22.1648 12.2173 22.1311 13.0013 22.0678C13.9262 22.0119 14.8452 21.8919 15.7509 21.7088C17.3075 21.392 18.2846 20.938 18.5914 20.3361C18.83 19.8758 18.83 19.3394 18.5914 18.8791C18.2846 18.2667 17.3075 17.7915 15.785 17.5064C14.8653 17.3147 13.9307 17.1911 12.9899 17.1369C11.2324 16.989 9.46417 16.989 7.70667 17.1369C6.77805 17.1928 5.85519 17.3128 4.94573 17.4959C3.38915 17.8126 2.42339 18.2667 2.10526 18.8685C1.99254 19.0971 1.9344 19.3456 1.93483 19.597C1.93419 19.8519 1.9923 20.1039 2.10526 20.3361C2.64603 21.0225 3.46881 21.4698 4.37763 21.5715L4.50948 21.6045C4.80847 21.7004 5.04317 21.9251 5.13461 22.2118C5.2391 22.5395 5.13919 22.894 4.87526 23.1321C4.61134 23.3701 4.22704 23.4523 3.87771 23.3454C2.4129 23.1234 1.12815 22.312 0.366886 21.128C-0.122295 20.1691 -0.122295 19.0567 0.366886 18.0977C0.969067 16.9046 2.37794 16.1338 4.54806 15.722C5.56979 15.5166 6.60661 15.3825 7.64986 15.3208ZM7.75413 0.488648C10.3411 -0.506006 13.3182 0.0460746 15.2962 1.88729C17.2742 3.72851 17.8634 6.496 16.7888 8.89846C15.7143 11.3009 13.1877 12.8649 10.3881 12.8606C6.57104 12.8548 3.48004 9.97759 3.48004 6.4304L3.48646 6.15267C3.6017 3.66286 5.25953 1.44778 7.75413 0.488648ZM10.3881 1.83737C9.07529 1.83458 7.81525 2.31725 6.8859 3.17891C5.95656 4.04057 5.43428 5.21043 5.43428 6.4304C5.42969 8.29333 6.63372 9.97519 8.48446 10.6911C10.3352 11.4069 12.4678 11.0157 13.8869 9.69991C15.306 8.38413 15.7319 6.40323 14.9658 4.6817C14.1998 2.96016 12.3927 1.83737 10.3881 1.83737Z" fill="#06070C"/>
</svg>
