<svg width="24" height="24" viewBox="0 0 24 24" fill="none" xmlns="http://www.w3.org/2000/svg">
<path d="M16.5066 0C21.1082 0 24 2.87071 24 7.50396V10.5858C24 10.8283 23.9029 11.0608 23.7304 11.2313C23.5579 11.4018 23.3243 11.4962 23.0818 11.4934V11.4723C22.5747 11.4723 22.1636 11.0612 22.1636 10.5541V7.50396C22.1636 3.84169 20.1583 1.83641 16.5066 1.83641H7.50396C3.85224 1.83641 1.83641 3.85224 1.83641 7.50396V16.5066C1.83641 20.1478 3.85224 22.1636 7.50396 22.1636H16.5066C20.1583 22.1636 22.1636 20.1478 22.1636 16.5066C22.1636 15.9995 22.5747 15.5884 23.0818 15.5884C23.5889 15.5884 24 15.9995 24 16.5066C24 21.1293 21.1293 24 16.5066 24H7.50396C2.87071 24 0 21.1293 0 16.5066V7.50396C0 2.87071 2.87071 0 7.50396 0H16.5066ZM12.0844 13.9736C12.329 13.979 12.561 14.0829 12.7279 14.2617C12.8948 14.4405 12.9824 14.6792 12.971 14.9235V16.0844L12.9546 16.2286C12.9179 16.4176 12.8223 16.5916 12.6798 16.7246C12.5016 16.8909 12.2647 16.9795 12.0211 16.971C11.5164 16.9482 11.1226 16.5261 11.1346 16.0211V14.8602C11.1428 14.6166 11.2476 14.3863 11.4257 14.22C11.6039 14.0537 11.8409 13.9651 12.0844 13.9736ZM12.0422 7.01847C12.1444 7.01844 12.2448 7.03564 12.3395 7.06844C12.7173 7.18223 12.9921 7.53264 12.9921 7.94723L12.9912 10.8168L16.1161 10.8179C16.2213 10.8167 16.3249 10.8338 16.4225 10.8674C16.5647 10.9108 16.6966 10.9895 16.8039 11.0981C16.9744 11.2706 17.0688 11.5042 17.066 11.7467C17.066 12.2457 16.6677 12.6534 16.1689 12.6649H7.98945C7.90352 12.663 7.82055 12.6494 7.742 12.6257C7.34058 12.5257 7.04434 12.1657 7.03952 11.7361C7.03676 11.4936 7.13114 11.26 7.30166 11.0875C7.47219 10.915 7.70467 10.8179 7.94723 10.8179H11.1135V7.93668C11.1248 7.43024 11.5357 7.02403 12.0422 7.01847Z" fill="#06070C"/>
</svg>
